<?xml version="1.0" encoding="UTF-8"?>
<svg id="Layer_2" data-name="Layer 2" xmlns="http://www.w3.org/2000/svg" xmlns:xlink="http://www.w3.org/1999/xlink" viewBox="0 0 305.9 317.44">
  <defs>
    <style>
      .cls-1 {
        fill: #46322d;
      }

      .cls-1, .cls-2, .cls-3, .cls-4, .cls-5, .cls-6, .cls-7, .cls-8, .cls-9, .cls-10, .cls-11, .cls-12, .cls-13, .cls-14, .cls-15, .cls-16, .cls-17, .cls-18, .cls-19, .cls-20, .cls-21, .cls-22, .cls-23, .cls-24, .cls-25, .cls-26, .cls-27, .cls-28, .cls-29, .cls-30, .cls-31, .cls-32, .cls-33, .cls-34 {
        stroke-width: 0px;
      }

      .cls-2 {
        fill: #554645;
      }

      .cls-3 {
        fill: #575353;
      }

      .cls-4 {
        fill: url(#linear-gradient);
      }

      .cls-5 {
        fill: #706666;
      }

      .cls-6 {
        fill: #686a6c;
      }

      .cls-7 {
        fill: #301c10;
      }

      .cls-8 {
        fill: #8b7f55;
      }

      .cls-9 {
        fill: #30231a;
      }

      .cls-10 {
        fill: #97a9ad;
      }

      .cls-11 {
        fill: #a17f3e;
      }

      .cls-12 {
        fill: #decb92;
      }

      .cls-13 {
        fill: url(#linear-gradient-2);
      }

      .cls-14 {
        fill: #f9f7e6;
      }

      .cls-15 {
        fill: #633d1f;
      }

      .cls-16 {
        fill: #9d6c29;
      }

      .cls-17 {
        fill: #767c81;
      }

      .cls-18 {
        fill: url(#linear-gradient-3);
      }

      .cls-19 {
        fill: #403836;
      }

      .cls-20 {
        fill: #4d3315;
      }

      .cls-21 {
        fill: #8f6e37;
      }

      .cls-22 {
        fill: #452815;
      }

      .cls-23 {
        fill: #839095;
      }

      .cls-24 {
        fill: #ac9148;
      }

      .cls-25 {
        fill: #c6a361;
      }

      .cls-26 {
        fill: #7b4525;
      }

      .cls-27 {
        fill: #b2c4b8;
      }

      .cls-28 {
        fill: #ccaf55;
      }

      .cls-29 {
        fill: #e7e7e6;
      }

      .cls-30 {
        fill: url(#linear-gradient-4);
      }

      .cls-31 {
        fill: #714c25;
      }

      .cls-32 {
        fill: #acbdbf;
      }

      .cls-33 {
        fill: #7b5a24;
      }

      .cls-34 {
        fill: #e5d9b2;
      }
    </style>
    <linearGradient id="linear-gradient" x1="265.62" y1="66.6" x2="255.6" y2="91.12" gradientTransform="translate(2.19 -1.41) rotate(.44)" gradientUnits="userSpaceOnUse">
      <stop offset="0" stop-color="#6b6d72"/>
      <stop offset="1" stop-color="#555353"/>
    </linearGradient>
    <linearGradient id="linear-gradient-2" x1="79.96" y1="90.94" x2="181.43" y2="227.88" gradientTransform="translate(2.19 -1.41) rotate(.44)" gradientUnits="userSpaceOnUse">
      <stop offset=".26" stop-color="#f2d58f"/>
      <stop offset="1" stop-color="#a17f42"/>
    </linearGradient>
    <linearGradient id="linear-gradient-3" x1="143.49" y1="67.68" x2="219.11" y2="233.71" gradientTransform="translate(2.19 -1.41) rotate(.44)" gradientUnits="userSpaceOnUse">
      <stop offset="0" stop-color="#835c2d"/>
      <stop offset="1" stop-color="#6a461b"/>
    </linearGradient>
    <linearGradient id="linear-gradient-4" x1="138.2" y1="193.85" x2="179.06" y2="218.02" gradientTransform="translate(2.19 -1.41) rotate(.44)" gradientUnits="userSpaceOnUse">
      <stop offset="0" stop-color="#6d4d1e"/>
      <stop offset="1" stop-color="#553716"/>
    </linearGradient>
  </defs>
  <g id="Layer_1-2" data-name="Layer 1">
    <g>
      <path class="cls-22" d="m301.84,232.11c.05.09-.11.55.5.5l1.21,5.51c-23.58,1.2-48.88,22.21-56.07,44.31-5.13,15.78,1.19,28.03-10.44,25.16-5.21-1.28-28.56-19.29-63.45-3.49-7.73,3.5-14.43,9.83-21.6,13.33-6.52-5.31-13.09-10.81-20.63-14.65-14.86-7.58-31.57-9.11-47.7-4.86-4.28,1.13-16.45,7.83-19.3,6.85.75-1.09.67-2.98,1.03-3.99.81-2.25,1.49-1.86,1.51-1.99,5.82-1.21,11.04-4.97,16.79-6.37,9.53-2.31,20.62-2.3,30.25-.77,14.82,2.35,27.3,10.04,38.08,20.29,6.32-3.27,11.49-8.59,17.84-11.86,3.24-1.67,10.45-4.45,14.04-5.39,19.17-5.01,39.19-2.26,55.66,8.92-2.25-35.5,28.58-66.05,62.28-71.5Z"/>
      <path class="cls-15" d="m25.39,236.49c8.9,4.35,21.34,14.35,27.32,22.2,4.76,6.26,12.63,21.5,13.77,29.1.35,2.32.74,9,.42,11-.02.12-.71-.27-1.51,1.99-1.16-2.06-.87-10.08-1.38-15.26-1.85-1.97-3.23-9.04-3.43-9.52-1.22-3.04-12.29-24.76-11.89-14.34-9.58-12.42-29.02-25.91-45.03-26.84-.64-.46.01-3.58-.22-4.5,7.71.23,15.08,2.81,21.95,6.17Z"/>
      <g>
        <path class="cls-15" d="m262.64,64.36c9.17,10.52,25.89,22.54,40.32,22.3.85,2.81-1.89,4.27-2.03,4.48-23.89-2.91-45.94-22.05-55.65-43.41,6.33,4.63,9.26,14.95,17.37,16.63Z"/>
        <path class="cls-15" d="m262.64,64.36c-8.11-1.68-11.03-12-17.37-16.63-3.07-6.75-4.48-10.52-5.36-18.04-.26-2.23-.96-5.36-.94-7.5,0-.85,1.43-5.39.55-6.49.43-.3,1.79-2.15,3.02-2.48.16.06,2.51.21,2.99,1.77.78,2.57-3.86,25.31,17.12,49.37Z"/>
      </g>
      <path class="cls-15" d="m66.08,13.87c.42-.05.47.12.5.5,1.21,17.49-1.16,29.01-11.33,43.65-9.77,14.06-24.95,24.44-41.7,27.92,22.26-7.4,44.7-27.74,50.38-50.85,1.94-7.89,1.36-11.02,1.14-18.74-.03-.96-.77-1.56-.48-2.5.48-.06,1.07.12,1.5.01Z"/>
      <path class="cls-34" d="m156.65,1.07c-.52,1.14-1.63,1.71-2.52,2.48-18.66,16.1-31.95,21.88-57.14,20.06-3.04-1.69-11.42-1.03-10.97-4.08,26.39,6.66,49.28-.66,68.38-19.47,2.12-.32,2.13.96,2.24,1.02Z"/>
      <path class="cls-15" d="m65.38,300.78c-.36,1.01-.28,2.9-1.03,3.99-.82-.28-2.27-1-2.49-1.77-.75-2.62,2.53-20.98-13.18-41.34-.4-10.42,10.66,11.3,11.89,14.34.19.48,1.57,7.55,3.43,9.52.51,5.17.22,13.2,1.38,15.26Z"/>
      <path class="cls-31" d="m184.51,19.28c2.21,3.09,7.43,2.34,10.46,4.58-12.55-1.75-26.53-7.79-36.37-15.77-1.27-1.03-3-3.38-4.46-4.53.89-.77,2-1.34,2.52-2.48,3.7,1.76,18.6,15.13,27.85,18.21Z"/>
      <path class="cls-34" d="m242.53,13.22c-1.23.32-2.59,2.18-3.02,2.48-12.86,9.04-29.33,10.28-44.55,8.16-3.03-2.23-8.25-1.49-10.46-4.58,13.11,4.36,34.53,4.44,47.24-1.14,5.39-2.36,6.67-6.52,10.78-4.92Z"/>
      <path class="cls-34" d="m13.9,104.44c4.88,10.52,3.7,20.42-.74,30.98-2.62-.1,1.47-8.85,1.63-16.73.1-5.29-1.85-12.83-1.9-13.51-.06-.83.28-.83,1.01-.74Z"/>
      <path class="cls-34" d="m14.57,212.41c-3.05,2.17.78-7.4.62-15.24-.12-5.65-2.67-11.54-2.37-17.26,4.47,9.81,6.83,22.58,1.75,32.5Z"/>
      <path class="cls-8" d="m86.03,19.52c-.45,3.05,7.93,2.39,10.97,4.08-11.21-.81-20.71-3.69-30.42-9.23-.03-.38-.07-.55-.5-.5,1.38-.33,2.88-.44,3.26-1.97,4.32,2.93,11.71,6.37,16.69,7.63Z"/>
      <path class="cls-22" d="m303.42,156.65c.74,1.56,2.72,3.99,2.46,5.27-.91,1-2.96,2.83-3.53,3.72-1.03-2.14-.54-9.01,1.07-8.99Z"/>
      <path class="cls-10" d="m194.97,23.85c15.22,2.13,31.69.88,44.55-8.16.88,1.1-.54,5.65-.55,6.49-1.91,1.29-3.62,2.59-5.03,4.46-.03.04-.68-.16-.51,1-1.95-1.91-7.29-1.95-8.04,5.94-.19,1.95-.8,3.73.96,5.51-3.75,2.05-14.65,7.06-16.57,10.12-.03.05.63.44.49.75-1.25-.62-3.32-.95-3.49-1.03-10.71-4.96-19.06-8.33-30.91-10.23-10.42-1.67-19.47-1.95-29.98-1.23l12.72-29.39c9.84,7.98,23.82,14.02,36.37,15.77Z"/>
      <path class="cls-5" d="m175.86,38.7c3.4,5.69-9.02-.65-5.54,4.96-45.77-5.86-89.96,12.32-116.35,50.59-22.05,31.97-27.51,70.78-13.82,107.36,4.06,10.86,10.66,21.01,17.76,30.13-3.79,1.96,7.12,11.57.92,10-1.52-2.17-5.46-5.91-7.43-8.8-6.43-9.45-12.97-21.06-16.75-31.87C7.37,123.11,65.36,43,145.88,37.47c10.52-.72,19.56-.44,29.98,1.23Z"/>
      <path class="cls-10" d="m58.84,241.74c.72,1.02,2.14,2.62,2.47,3.52,1.43,3.81-1.32,3.75-2.05,6.23-.52,1.77,3.82,6.35-6.55,7.2-5.98-7.86-18.42-17.85-27.32-22.2-4.93-5.65-12.53-1.6-5.93-8.54,5.07.06,7.42-5.11,6.06-7.7-.85-1.62-2.4-1.16-2.49-1.27-.34-.42-.64-1.09-.99-1.51-.41-.49-.61-1.52-1.49-1.76,3-4.49,2.84-9.46,8.84-12.68,1.07-.57,3.74.68,5.26-1.96,3.78,10.81,10.32,22.42,16.75,31.87,1.97,2.9,5.91,6.63,7.43,8.8Z"/>
      <path class="cls-12" d="m13.55,85.94c-.38.08-3.53.32-4.5.47-.34-1.22-1.19-.91-1.49-1.01,8.32-3.67,16.62-6.33,24.33-11.31,14.86-9.6,28.37-27.41,31.59-44.99,1.05-5.73-.5-11.92,1.6-12.73.21,7.71.8,10.85-1.14,18.74-5.68,23.11-28.12,43.44-50.38,50.85Z"/>
      <g>
        <path class="cls-22" d="m19.45,227.95c-4.54-.06-4.16-2.18-3.96-5.53,2.55,3.74,7.83-.27,7.52-3.44.09.11,1.64-.35,2.49,1.27,1.36,2.59-.99,7.76-6.06,7.7Z"/>
        <path class="cls-14" d="m22.03,217.47c.34.41.65,1.08.99,1.51.31,3.17-4.98,7.18-7.52,3.44.27-4.37,1.4-6.57,6.54-4.95Z"/>
      </g>
      <g>
        <path class="cls-32" d="m158.6,8.08l-12.72,29.39C65.36,43,7.37,123.11,34.66,201.07c-1.53,2.64-4.19,1.39-5.26,1.96-6.01,3.22-5.85,8.19-8.84,12.68.87.24,1.08,1.27,1.49,1.76-5.13-1.62-6.27.58-6.54,4.95-.2,3.35-.59,5.47,3.96,5.53-6.6,6.95,1,2.89,5.93,8.54-6.86-3.36-14.23-5.94-21.95-6.17-.25-1.02-1.69-2.07-1.47-3.26,3.33-3.55,10.68-10.89,12.61-14.65,5.08-9.92,2.72-22.69-1.75-32.5-2.86-6.28-7.3-11.4-10.36-17.57l-.44-8c2.94-6.34,8.07-11.58,11.14-18.91,4.44-10.57,5.61-20.47.74-30.98-1.57-3.4-7.54-12.94-9.88-15.57-.28-.62-.49-.7-.49-1.5,1.77-.54,3.68-.69,5.51-.96.98-.14,4.13-.39,4.5-.47,16.76-3.48,31.93-13.87,41.7-27.92,10.18-14.64,12.54-26.16,11.33-43.65,9.71,5.54,19.21,8.42,30.42,9.23,25.19,1.83,38.47-3.96,57.14-20.06,1.47,1.16,3.2,3.51,4.46,4.53Z"/>
        <g>
          <path class="cls-31" d="m2.46,162.34c-.31-.63-2.05-2.24-2.46-4.77.14-.9,1.16-1.37,2.02-3.23l.44,8Z"/>
          <g>
            <path class="cls-14" d="m81.97,28.49c1.19,5.72-5.14,10.47-9.04,5.43-1.47-9.14,5.17-9.74,9.04-5.43Z"/>
            <path class="cls-15" d="m72.93,33.91c3.9,5.04,10.23.29,9.04-5.43,7.92,8.82-7.33,16.05-9.04,5.43Z"/>
          </g>
          <g>
            <path class="cls-14" d="m25.47,95.53c-.39,3.39-4.36,7.17-7.53,4.44-4.33-3.73,1.66-13.86,7.53-4.44Z"/>
            <path class="cls-22" d="m17.94,99.97c3.17,2.73,7.14-1.06,7.53-4.44.14.22,2.17.96,1.97,3.76-.36,5.03-8.76,7.24-9.5.68Z"/>
          </g>
        </g>
      </g>
      <path class="cls-20" d="m7.55,85.4c.3.1,1.15-.21,1.49,1.01-1.82.26-3.74.42-5.51.96,0-3.29,1.4-2.82,4.01-1.97Z"/>
      <path class="cls-3" d="m57.91,231.74c.98,1.26,4.77,4.17,6.45,6.3.33.42-.54.95-.51,1,3.4,4.41,5.29,7.48,5.47,3.79.73.82,3.05,2.51,5.46,5.04.34.35,1.27,2.55,1.48,2.76,4.02,3.99,24.08,20.28,28.08,20.96,1.6.27-1.14-1.97.51-1.5,1.06.31,13.22,7.69,19.41,10.65,11.36,5.41,23.35,9.61,33.86,16.75,5.29.95,11.26-.18,11.73,2.59-6.35,3.27-11.51,8.58-17.84,11.86-10.78-10.25-23.26-17.93-38.08-20.29,9.09-1.88-.56-4.2-9.65-12.07-2.9-2.51-9.88-9.51-9.91-11.07-3.49-2.83-11.4-5.51-13.2-6.6-2.04-1.24-4.56-2.68-6.47-4.05-4.99-3.57-8.74-8.67-13.4-12.6-.34-.9-1.76-2.5-2.47-3.52,6.19,1.57-4.72-8.05-.92-10Z"/>
      <path class="cls-2" d="m99.66,263.05c1.8,5.11,20.74,13.85,28.11,17.21,2.85,1.3,8.51,2.38,11.47,3.59,2.11.86,3.74,2.94,3.98,3.03,12.59,4.96,25.47,8.79,38.95,4.8-1.54,5.22.61.7,1.73,3.01-3.58.94-10.79,3.72-14.04,5.39-.47-2.77-6.43-1.64-11.73-2.59-10.51-7.15-22.5-11.34-33.86-16.75-6.2-2.95-18.35-10.34-19.41-10.65-1.65-.47,1.09,1.77-.51,1.5-4-.68-24.06-16.97-28.08-20.96-.21-.21-1.14-2.41-1.48-2.76,7.91,5.78,16.04,10.97,24.88,15.19Z"/>
      <path class="cls-23" d="m74.71,257.86c1.05,8.57,5.25,13.05,5.39,13.79.95,4.79-9.62-.09-7.06,8.19-3.3,1.72-5.65,4.44-6.56,7.95-1.14-7.59-9.01-22.84-13.77-29.1,10.38-.85,6.03-5.43,6.55-7.2.73-2.49,3.48-2.42,2.05-6.23,4.66,3.93,8.41,9.03,13.4,12.6Z"/>
      <path class="cls-17" d="m239.91,29.7c-.89.2-.93.72-1.01,1.49l-2-.02c-.48-2.14-.94-3.3-2.96-4.52,1.41-1.87,3.12-3.17,5.03-4.46-.02,2.15.68,5.28.94,7.5Z"/>
      <path class="cls-7" d="m174.82,44.19c8.14,1.39,17.29,4.08,24.94,7.19,55.84,22.69,90.49,85.88,70.37,144.5-21.64,63.02-99.5,101.03-170.46,67.17-8.84-4.22-16.97-9.4-24.88-15.19-2.41-2.53-4.73-4.22-5.46-5.04-1.36-1.53-3.18-2.66-4.47-4.28-.83-9.08-14.59-21.4-7.36-17.8,2.21,3.31,7.11,8.98,9.9,12.07,21.24,23.54,52.38,36.12,83.69,37.13,3.04.1,5.95.21,9,.07,17.85-.8,27.86-4.02,43.58-11.66,11.95-5.81,16.46-8.85,26.62-17.29,4.28-3.55,7.31-6.28,11.08-10.41,2.98-3.27,6.76-6.21,8.58-10.43,25.91-35.47,24.31-80.12,1.9-116.95-21.72-35.7-55.29-52.22-96.56-53.72-20.17-.73-34.28,2.02-52.57,10.59-10.86,5.09-23.15,13.31-31.66,21.75l-7.3,6.94c-1.09.15-1.66-5.47,4.3-7.21-2.68-1.41,2.57-2.21,4.53-3.96.13-.12-1.64-.55,1.27-2.74.06-.05.74.95,1.5.51.81-.47.92-2.97,4.01-1.97,1.59-.93-1-4.43,1.53-4.49.14,0,1.84,2.02,1.98,2.01.94-.03,9-6.94,15.57-10.38,4.27-2.24,9.29-3.53,13.54-5.89,6.92-1.47,14.17-5.25,19.03-4.35,1.99-5.54,13.25-3.55,19.54-6.35l23.98,1.68.26-1.5Z"/>
      <path class="cls-2" d="m210.26,49.96c6.69,3.32,21.96,13.39,27.85,18.21,9.08,7.42,22.11,21.28,28.25,31.21,16.82,27.19,24.65,71.64,9.97,101.05-4.05-1.92-1.64-5.37-6.21-4.55,20.12-58.61-14.53-121.8-70.37-144.5-4.19-3.71,3.39-.06,7.02-2.45.18.08,2.24.4,3.49,1.03Z"/>
      <path class="cls-15" d="m289.96,216.53c-3.21.27-3.65-5.95-3.93-8.53-.38-3.47-.27-5.55.07-9,.53-5.37,1.7-13.94,6.13-16.95-4.17,9.66-6.52,24.63-2.26,34.47Z"/>
      <path class="cls-23" d="m238.9,31.19c-.92,9.24.89,26.58-.78,36.98-5.89-4.82-21.16-14.88-27.85-18.21.14-.31-.52-.71-.49-.75,1.92-3.06,12.82-8.07,16.57-10.12,3.79,3.85,12.5.75,10.56-7.92l2,.02Z"/>
      <g>
        <path class="cls-4" d="m245.27,47.73c9.71,21.37,31.76,40.5,55.65,43.41-.08.12.04.42-1.52,2.49-3.02,4.01-6.3,7.72-9.09,11.93-.16.23-.6-1.05-1.5.24-2.23,9.05-2.46,9.54-11.27,3.66-4.09-2.73-7.42-6.93-11.17-10.08-6.14-9.92-19.18-23.78-28.25-31.21,1.67-10.4-.14-27.75.78-36.98.08-.77.12-1.29,1.01-1.49.88,7.52,2.29,11.29,5.36,18.04Z"/>
        <path class="cls-7" d="m280.85,100.49c2.29,1.66,4.66-.5,5.02-2.96.27.22,2.08-.33,2.5.27.44,10.69-12.63,7.22-7.52,2.69Z"/>
        <path class="cls-34" d="m285.87,97.53c-.36,2.46-2.74,4.63-5.02,2.96-.93-.68-1.31-2.78-.97-3.76,1.43-4.12,4.78-.2,5.99.8Z"/>
      </g>
      <path class="cls-3" d="m206.77,48.94c-3.63,2.39-11.2-1.26-7.02,2.45-7.65-3.11-16.8-5.79-24.94-7.19-1.47-.25-3.02-.35-4.49-.53-3.48-5.61,8.94.74,5.54-4.96,11.86,1.9,20.21,5.27,30.91,10.23Z"/>
      <g>
        <path class="cls-14" d="m233.43,27.65c4.43,4.33-4.36,14.93-8.04,5.94.76-7.89,6.09-7.84,8.04-5.94Z"/>
        <path class="cls-22" d="m236.9,31.17c1.95,8.67-6.76,11.76-10.56,7.92-1.75-1.78-1.14-3.56-.96-5.51,3.68,9,12.47-1.6,8.04-5.94-.18-1.16.47-.95.51-1,2.03,1.22,2.48,2.38,2.96,4.52Z"/>
      </g>
      <path class="cls-22" d="m170.32,43.66c1.48.19,3.02.28,4.49.53l-.26,1.5-23.98-1.68c-6.29,2.79-17.55.81-19.54,6.35-4.85-.9-12.1,2.89-19.03,4.35-4.25,2.36-9.27,3.66-13.54,5.89-6.57,3.44-14.64,10.35-15.57,10.38-.14,0-1.84-2.02-1.98-2.01-2.53.06.06,3.56-1.53,4.49-3.09-1-3.21,1.5-4.01,1.97-.75.44-1.43-.56-1.5-.51-2.91,2.19-1.14,2.62-1.27,2.74-1.96,1.76-7.21,2.55-4.53,3.96-5.96,1.75-5.4,7.36-4.3,7.21l7.3-6.94c-26.26,26.02-35.49,63.86-29.26,99.75,2.32,13.38,8.14,27.82,15.7,39.11-7.23-3.6,6.53,8.72,7.36,17.8,1.28,1.63,3.11,2.75,4.47,4.28-.18,3.69-2.07.62-5.47-3.79-.03-.04.84-.57.51-1-1.68-2.13-5.47-5.04-6.45-6.3-7.1-9.11-13.7-19.26-17.76-30.13,3.52-1.76-.27-6.03-1.89-13.76-6.53-31.16-3.82-55.17,11.14-83.39,2.73-5.15,7.9-9.84,4.58-10.21,26.4-38.27,70.58-56.46,116.35-50.59Z"/>
      <path class="cls-1" d="m40.15,201.61c-13.69-36.58-8.23-75.39,13.82-107.36,3.33.37-1.85,5.06-4.58,10.21-14.95,28.22-17.67,52.23-11.14,83.39,1.62,7.73,5.41,12,1.89,13.76Z"/>
      <path class="cls-17" d="m81.17,261.91c-.44,5.43,13.41,14.6,2.38,16.01-1.81-2.14-2.85-.96-2.99-1.02-.37-.17-5.01-4.88-6.5-.3-.79,2.44.91,3.35,2.46,4.77-.18.16-.98.93-1.01.99-1.26-.07-2.29-1.91-2.48-2.52-2.56-8.28,8.01-3.4,7.06-8.19-.15-.74-4.35-5.22-5.39-13.79,1.91,1.37,4.42,2.81,6.47,4.05Z"/>
      <path class="cls-7" d="m83.55,277.92c4.35,5.14-9.57,8.35-8.03,4.44.03-.07.83-.83,1.01-.99.55-.5,3.87-.54,4.03-4.47.14.07,1.18-1.12,2.99,1.02Z"/>
      <g>
        <path class="cls-6" d="m113.94,291.65c-9.63-1.53-20.72-1.55-30.25.77-5.75,1.4-10.98,5.16-16.79,6.37.32-2-.07-8.68-.42-11,.91-3.51,3.26-6.23,6.56-7.95.19.61,1.22,2.45,2.48,2.52-1.53,3.92,12.38.7,8.03-4.44,11.04-1.42-2.81-10.58-2.38-16.01,1.8,1.09,9.71,3.77,13.2,6.6.03,1.56,7.01,8.56,9.91,11.07,9.1,7.87,18.75,10.19,9.65,12.07Z"/>
        <path class="cls-9" d="m71.25,285.33c.59-.18,10.8.47,12.24,1.34-8.45.15-14.52,9.85-10,.92-3.94.03-3.99-1.73-2.23-2.27Z"/>
      </g>
      <g>
        <path class="cls-19" d="m290.31,105.56c.16,2.96-1.43,6.27-1.56,8.24-.1,1.48.23,14.26.38,15,1.01,4.72,11.01,21.25,13.79,26.85.17.33.33.66.49,1-1.61-.02-2.1,6.85-1.07,8.99-.18.28-.33.72-.51,1-2.73,4.24-7.77,11.14-9.62,15.42-4.43,3-5.6,11.58-6.13,16.95-1.56-.34-1.64,9.32-.07,9,.28,2.58.72,8.79,3.93,8.53,1.83,4.24,9.06,10.76,11.88,15.59-33.7,5.45-64.53,36-62.28,71.5-16.48-11.18-36.49-13.93-55.66-8.92-1.12-2.31-3.27,2.21-1.73-3.01-13.49,3.99-26.36.16-38.95-4.8-.24-.09-1.86-2.17-3.98-3.03-2.96-1.21-8.61-2.28-11.47-3.59-7.37-3.36-26.31-12.1-28.11-17.21,70.96,33.86,148.83-4.15,170.46-67.17,4.57-.82,2.16,2.62,6.21,4.55,14.68-29.41,6.85-73.86-9.97-101.05,3.75,3.15,7.07,7.35,11.17,10.08,8.81,5.88,9.04,5.39,11.27-3.66.9-1.29,1.35,0,1.5-.24Z"/>
        <path class="cls-9" d="m288.39,225.51c-14.93-.33-.44,10.99.98,2.51,1.61,1.43,3.28.11,3.49.78.2.61-6.99,6.73-11.28,4.66-6.12-2.96,1.27-14.6,6.81-7.95Z"/>
        <path class="cls-26" d="m288.39,225.51c.74.89,1.31.55.98,2.51-1.42,8.48-15.91-2.84-.98-2.51Z"/>
        <path class="cls-9" d="m286.1,199c-.34,3.45-.45,5.52-.07,9-1.57.32-1.49-9.34.07-9Z"/>
        <g>
          <path class="cls-9" d="m228.81,271.54c9.14-1.48,7.29,12.84-1.07,9.49-4.48-1.8-3.08-8.82,1.07-9.49Z"/>
          <path class="cls-26" d="m230.29,273.05c4.46.24,3.57,7.23-1.54,5.49-2.76-.94-2.18-5.68,1.54-5.49Z"/>
        </g>
      </g>
      <path class="cls-12" d="m80.56,276.9c-.17,3.92-3.49,3.97-4.03,4.47-1.55-1.42-3.25-2.33-2.46-4.77,1.48-4.58,6.13.13,6.5.3Z"/>
      <g>
        <path class="cls-25" d="m226.51,82.08c1.04,1.49,17.84,21.36,19.07,22.14.18.11,3.38.15,4.24.53,18.76,30.75,21.84,65.7,7.24,98.78-2.24,5.08-9.38,15.39-7.87,16.18,1.97-3,2-2.42.75.51-1.81,4.23-5.6,7.16-8.58,10.43,1.18-3.3.35-2.37-.97-3.51-4.57-3.91-4.92-1.67-8.51,1.43-8.66,4.37,3-5.33,8.6-13.18,33.08-46.36,14.39-116.22-34.13-143.97-12.16-6.96-29.72-13.16-43.63-14.33.75-1.03.18-.79.01-1.5-.33-1.42-.73-2.74-1.47-4.01,24.02,3,46.89,14.99,65.25,30.49Z"/>
        <path class="cls-34" d="m155.28,49.54c-1.69,2.83,3.01,1.67,5.98,2.05.74,1.27,1.14,2.59,1.47,4.01-5.35.64-10.89-.6-16.24-.12-.39.03-.11.96-.51,1-58.63,5.75-103.97,53.83-97.6,114.22-1.6.53-.66,6.29-6.04,4.95-4.63-53.82,14.99-87.74,60.37-115.5,18.28-8.58,32.39-11.33,52.57-10.59Z"/>
        <path class="cls-31" d="m125.71,255.75c-.83.88,3.35,5.91,3.7,6.03,1.63.54,16.74.89,21.73,2.17-.05,2,0,4-.05,6-31.31-1.01-62.45-13.59-83.69-37.13,1.87-2.88,1.79-7.11,5.07-8.96,11.92,13.41,36.04,27.1,53.24,31.9Z"/>
        <path class="cls-12" d="m48.38,170.69c2.17,20.58,11.27,37.1,24.59,52.42.03.03-.71.52-.51.75-3.27,1.85-3.19,6.08-5.07,8.96-2.79-3.1-7.69-8.77-9.9-12.07-7.56-11.28-13.37-25.73-15.7-39.11,1.9-1.52.72-3.98.55-5.99,5.37,1.34,4.43-4.42,6.04-4.95Z"/>
        <path class="cls-15" d="m240.39,227.14c-2.5,3.24-7.64,8.84-10.58,11.42-7.65,6.7-18.7,13.44-28.12,17.28-27.72,11.29-44.83,6.77-46.8,8.14-.43.3-2.64,6.47,5.2,6.04-3.04.14-5.95.03-9-.07.04-2,0-4,.05-6,.09-3.37.52-2.84.52-3,35.42,1.63,54.85-10.42,80.22-32.37,3.59-3.11,3.94-5.35,8.51-1.43Z"/>
        <path class="cls-21" d="m251.84,103.27h-.5c-3.36-3.23-21.79-25.16-24.55-25.18-3.6-.03-1.11,2.81-.28,4-18.35-15.5-41.22-27.49-65.25-30.49-2.97-.37-7.67.79-5.98-2.05,41.27,1.5,74.84,18.03,96.56,53.72Z"/>
        <path class="cls-25" d="m249.94,220.22c1.25-2.92,1.22-3.5-.75-.51-1.51-.79,5.63-11.11,7.87-16.18,14.6-33.07,11.53-68.03-7.24-98.78l1.51-1.49h.5c22.41,36.84,24.01,81.48-1.9,116.95Z"/>
        <path class="cls-31" d="m203.66,258.35c-15.72,7.64-25.72,10.86-43.58,11.66-7.85.43-5.63-5.74-5.2-6.04,1.96-1.37,19.08,3.16,46.8-8.14-.17,1.75,3.34.79,1.98,2.51Z"/>
        <path class="cls-12" d="m102.72,60.14c-45.38,27.76-65,61.68-60.37,115.5.17,2.02,1.35,4.48-.55,5.99-6.23-35.89,3-73.73,29.26-99.75,8.51-8.44,20.8-16.66,31.66-21.75Z"/>
        <path class="cls-21" d="m230.29,241.06c-10.16,8.44-14.68,11.48-26.62,17.29,1.36-1.73-2.15-.77-1.98-2.51,9.42-3.84,20.48-10.58,28.12-17.28l.48,2.5Z"/>
        <path class="cls-11" d="m241.37,230.65c-3.77,4.13-6.8,6.86-11.08,10.41l-.48-2.5c2.94-2.58,8.08-8.18,10.58-11.42,1.32,1.13,2.15.2.97,3.51Z"/>
        <path class="cls-13" d="m162.73,55.6c.16.71.74.47-.01,1.5-2.64-.22-5.3-1.1-8-.31.47,11.43-.93,24.55-.27,35.74-22.21-.59-49.26,16.46-59.76,36.03-6.21,11.58-9.17,24.74-8.29,37.92.37,5.48,2.04,10.9,3.88,16.02,8.86,24.79,34.27,47.12,61.11,48.45-.07,9.66-.16,19.33-.22,28.99-8.5-.41-17.24-1.9-25.46-4.19-17.2-4.8-41.32-18.48-53.24-31.9-.2-.23.54-.71.51-.75-13.32-15.32-22.42-31.84-24.59-52.42-6.37-60.39,38.96-108.47,97.6-114.22.39-.04.12-.96.51-1,5.36-.47,10.9.76,16.24.12Z"/>
        <path class="cls-18" d="m162.72,57.1c13.91,1.17,31.46,7.37,43.63,14.33,48.53,27.75,67.22,97.6,34.13,143.97-5.6,7.85-17.26,17.55-8.6,13.18-25.37,21.95-44.81,34.01-80.22,32.37,0-1.31-.49-.95-.49-1,.06-9.66.16-19.33.22-28.99,23.44,1.17,44.5-14.03,58.23-31.79.35-.45-.69-.99-.49-1.25.27-.36,4.86-4.41,6.05-6.7,8.86-14.68,10.82-30.88,6.36-47.44-1.81-6.74-8.54-21.44-16.07-22.37-2.26-.28-2.32-.25-1.76,1.49-.11-.14-.99.66-1.98-3.01.65.27,3,.91,3.5.28-10.19-10.11-37-27.27-50.77-27.63-.66-11.19.74-24.3.27-35.74,2.7-.79,5.36.09,8,.31Z"/>
        <path class="cls-31" d="m251.34,103.26l-1.51,1.49c-.86-.39-4.06-.42-4.24-.53-1.23-.78-18.04-20.65-19.07-22.14-.83-1.19-3.32-4.02.28-4,2.76.02,21.19,21.96,24.55,25.18Z"/>
        <path class="cls-31" d="m151.17,259.95c0,.06.5-.31.49,1,0,.15-.44-.37-.52,3-4.99-1.27-20.09-1.62-21.73-2.17-.35-.12-4.53-5.14-3.7-6.03,8.22,2.29,16.96,3.79,25.46,4.19Z"/>
        <path class="cls-11" d="m196.2,123.33l-2.01,1.48c-11.68-10.53-32.4-16.65-47.87-15.36.17-.51-.36-3.13-.47-3.25-2.58-2.76-19.59,5.39-23.3,7.57-3.5,2.05-12.06,8.48-9.31,7.93-16.63,13.67-21.74,34.62-13.91,54.38,3.69,9.31,11.34,20.04,19.29,26.14-7.64-3.33-13.07-10.43-17.61-17.13,5.04,14.97,12.64,18.13,18.07,23.13.94.87,4.78,4.52,1.71,4.51-2.8-.01-22.92-15.53-28.51-29.71-2.54-6.43-2.9-17.91-5.87-16.54-.88-13.19,2.08-26.35,8.29-37.92,2.24,2.19,3.16-2.56,5.03-4.71,11.92-13.65,38.64-31.2,55.89-20.81,20.15.15,27.21,7.24,40.58,20.31Z"/>
        <path class="cls-30" d="m92.28,183.02c5.6,14.18,25.71,29.7,28.51,29.71,3.07.01-.77-3.64-1.71-4.51,2.05-2.95,3.63.63,5.74,1.54,6.26,2.73,11.67,3.81,18.21,4.14.5.03,1,0,1.5.01,4.87,1.39-3.59,1.65,1.73,3.01,11.73,3,33.03-5.9,41.35-15.18.11-.08.39.08.5,0,1.1,4.95,9.05-5.1,11.56-8.91.15.1.84-.09,1,0,1.1.72,2.33,1.38,3.48,2.03q-9.19,9.43-18.39,18.85c8.37-4.21,15.72-9.74,22.37-16.32.26.18.67.42,1,.51-.2.27.84.8.49,1.25-13.73,17.76-34.79,32.96-58.23,31.79-26.84-1.34-52.25-23.67-61.11-48.45l2,.52Z"/>
        <path class="cls-21" d="m154.45,92.52c.09,1.47-1.01,1.88.22,3.5,16.66.28,39.99,20.96,47.05,23.85.98,3.68,1.87,2.87,1.98,3.01,1.57,2.01,2.8,4.02,3.95,6.28l-.26,1.25c-1.33-.19-2.06.02-3.25.47-.15.06-.35-.06-.5,0-2.15-2.84-4.91-5.09-7.44-7.55-13.37-13.06-20.43-20.15-40.58-20.31-17.25-10.39-43.97,7.16-55.89,20.81-1.87,2.15-2.79,6.9-5.03,4.71,10.49-19.57,37.54-36.62,59.76-36.03Z"/>
        <path class="cls-21" d="m92.28,183.02l-2-.52c-1.83-5.13-3.51-10.54-3.88-16.02,2.98-1.37,3.34,10.11,5.87,16.54Z"/>
        <path class="cls-15" d="m201.73,119.88c-7.06-2.89-30.39-23.57-47.05-23.85-1.23-1.62-.14-2.03-.22-3.5,13.77.36,40.59,17.53,50.77,27.63-.49.64-2.84,0-3.5-.28Z"/>
        <path class="cls-1" d="m197.66,129.34c.93.73,2.5,1.69,2.48,3.02-3.54,1.47-7.05,3.08-10.53,4.67,8.39,14.9,8.64,30.85-.35,45.48,3.03,2.37,6.36,7.41,7.43,8.3-1.65,3.91-5.22,8.41-8.58,10.93-.11.08-.39-.08-.5,0-12.9,9.27-27.5,12.61-43.08,12.17-.5-.01-1,.01-1.5-.01-6.17-1.88-19.75-8.11-24.4-11.68-7.96-6.1-15.6-16.83-19.29-26.14,11.3,4.91,24.4-6.46,34.58-11.73,1.19,5.44,5.14,9.58,9.9,12.07.93.48,1.15.37,1.5.51.06.02-.2.84.24,1,2.84,1.01,8.6,1.54,11.74,1.09,8.79-1.25,23.07-13.31,11.25-32.4-.5-.8-1.4-2.39-1.48-2.51.58.17.85.75,1.75.51,6.47-7.45,12.87-15.14,18.42-23.35,3.8,2.48,6.91,5.3,10.43,8.08Z"/>
        <path class="cls-33" d="m118.62,202.21c4.66,3.57,18.23,9.8,24.4,11.68-6.54-.33-11.96-1.41-18.21-4.14-2.11-.92-3.69-4.5-5.74-1.54-5.43-5-13.03-8.16-18.07-23.13,4.55,6.7,9.97,13.8,17.61,17.13Z"/>
        <path class="cls-25" d="m146.33,109.46c-2.02.17-1.42.48-1.5.49-11.35,1.27-22.57,4.34-31.58,11.75-2.76.55,5.81-5.87,9.31-7.93,3.71-2.17,20.72-10.33,23.3-7.57.11.12.65,2.74.47,3.25Z"/>
        <path class="cls-31" d="m194.19,124.82c1.11,1,2.8,3.12,3.46,4.53-3.53-2.78-6.63-5.6-10.43-8.08-5.97-3.89-9.22-5.07-15.94-7.12-7.52-2.3-10.56-2.93-18.47-3.64-2.66-.24-5.27-.88-7.99-.56.08,0-.51-.32,1.5-.49,15.47-1.29,36.18,4.83,47.87,15.36Z"/>
        <path class="cls-24" d="m203.64,130.89c-.81.31-1.71.65-2.51.98-.37.15-.64.34-1,.49.03-1.33-1.55-2.29-2.48-3.02-.66-1.4-2.36-3.53-3.46-4.53l2.01-1.48c2.53,2.47,5.29,4.72,7.44,7.55Z"/>
        <path class="cls-22" d="m187.6,201.74c-8.32,9.28-29.62,18.18-41.35,15.18-5.31-1.36,3.14-1.62-1.73-3.01,15.58.44,30.18-2.9,43.08-12.17Z"/>
        <path class="cls-21" d="m208.13,197.4c-6.65,6.59-14,12.11-22.37,16.32q9.19-9.43,18.39-18.85c1.4.79,2.67,1.61,3.98,2.53Z"/>
        <path class="cls-21" d="m199.67,192.84c-2.51,3.81-10.47,13.85-11.56,8.91,3.36-2.52,6.93-7.02,8.58-10.93.1.08.4-.08.5,0,.83.67,1.6,1.4,2.48,2.02Z"/>
        <g>
          <path class="cls-27" d="m209.13,197.91c-.33-.08-.74-.33-1-.51-1.31-.92-2.58-1.74-3.98-2.53-1.15-.65-2.39-1.3-3.48-2.03,13.9-21.71,18.85-39.18,3.47-61.95,1.2-.45,1.93-.66,3.25-.47l.26-1.25c-1.15-2.26-2.38-4.27-3.95-6.28-.56-1.74-.5-1.77,1.76-1.49,7.53.93,14.26,15.63,16.07,22.37,4.46,16.55,2.5,32.76-6.36,47.44-1.19,2.29-5.78,6.34-6.05,6.7Z"/>
          <g>
            <path class="cls-12" d="m204.14,130.89c15.37,22.77,10.42,40.25-3.47,61.95-.16-.1-.85.09-1,0-.89-.62-1.66-1.35-2.48-2.02,14.35-18.54,17.84-39.03,3.95-58.95.8-.33,1.69-.67,2.51-.98.15-.06.35.06.5,0Z"/>
            <path class="cls-12" d="m197.19,190.82c-.1-.08-.4.08-.5,0-1.07-.9-4.41-5.93-7.43-8.3,8.99-14.63,8.74-30.58.35-45.48,3.49-1.59,7-3.2,10.53-4.67.37-.15.64-.34,1-.49,13.89,19.92,10.4,40.41-3.95,58.95Z"/>
          </g>
        </g>
        <g>
          <path class="cls-5" d="m187.22,121.27c-5.56,8.22-11.95,15.9-18.42,23.35-.89.23-1.17-.34-1.75-.51-.15-.2-.84-3.16-3.48-3.03-.2-.12-1.86-1.95-1.98-2.01.61.06.45-.41.5-.5,3.54-5.84,8.23-17.55,9.18-24.42,6.72,2.05,9.97,3.23,15.94,7.12Z"/>
          <path class="cls-33" d="m167.05,144.1c-1.71-.52-3.28-2.9-3.48-3.03,2.63-.13,3.33,2.82,3.48,3.03Z"/>
        </g>
        <g>
          <path class="cls-12" d="m153.6,138c2.28,1.18,5.12.35,1.98,3.01-12.72-.47-19.65,9.9-18.66,21.85.46,5.57,3.11,9.69,6.89,13.55-4.77-2.49-8.72-6.63-9.9-12.07-2.74-12.57,6.74-26.03,19.7-26.34Z"/>
          <path class="cls-33" d="m164.96,156.58c-5.23,1.91-1.12,6.93-1.06,7.49.28,2.59-.79,6.88,1.43,9.01-2.5,2.96-4.42,4.41-8.04,5.94-3.14.45-8.9-.08-11.74-1.09-.44-.16-.18-.98-.24-1,3.02-.03,11.69-.35,10.03-4.92,2.25-.65,2.49-2.95,5.54-5.21.77-3.11.56-4.72.06-7.75,1.96-3.22,1.54-2.39,4.02-2.47Z"/>
          <path class="cls-16" d="m148.84,171.96c2.36.66,4.08.75,6.5.05,1.66,4.57-7.02,4.9-10.03,4.92-.35-.14-.57-.03-1.5-.51-3.78-3.86-6.43-7.98-6.89-13.55,3.44.82,5.96,7.42,11.93,9.09Z"/>
          <path class="cls-28" d="m157.29,179.02c3.62-1.52,5.55-2.98,8.04-5.94,2.66-3.15,4.64-6.83,5.08-10.96.25-2.35.04-4.68-.45-7-.51-2.46-1.97-5.5-3.44-7.52.94-.97.87,1.84,2.01-.98,11.83,19.09-2.45,31.16-11.25,32.4Z"/>
          <path class="cls-24" d="m161.59,139.06c.13.06,1.78,1.89,1.98,2.01.2.12,1.77,2.51,3.48,3.03.08.12.98,1.71,1.48,2.51-1.14,2.82-1.07.01-2.01.98-1.23-1.7-4.53-4.74-6.46-5.55-1.86-.78-2.42-.96-4.49-1.03,3.14-2.66.31-1.83-1.98-3.01,2.21-.05,6.05.14,7.99,1.06Z"/>
          <path class="cls-22" d="m155.58,141.02c2.07.08,2.63.26,4.49,1.03-1.39,1.35-3.96,4.12-5.54,4.96-.43.23-2.18.21-3.51.97-.2.12-2.18.24-4.26,1.97-6.08,5.04-5.09,14.57-1.87,15.48-2.57,1.06,4.14,4.39,3.95,6.53-5.97-1.67-8.48-8.27-11.93-9.09-.98-11.95,5.94-22.32,18.66-21.85Z"/>
          <path class="cls-21" d="m154.53,147.01c3.22,2.84,5.71,7.81,6.41,12.05.5,3.02.71,4.64-.06,7.75-3.04,2.26-3.29,4.56-5.54,5.21-2.42.7-4.13.61-6.5-.05.19-2.14-6.52-5.47-3.95-6.53,2.7.76,4.68-.98,6.52-2.45,6.21-4.97,3.95-11.77,1.1-12.49,1.7-1.86,1.04-2.67-1.48-2.51,1.32-.77,3.07-.74,3.51-.97Z"/>
          <path class="cls-31" d="m166.53,147.6c1.47,2.03,2.93,5.07,3.44,7.52-.93,3.43-1.83,1.36-5.01,1.46-2.48.08-2.06-.75-4.02,2.47-.7-4.23-3.18-9.2-6.41-12.05,1.58-.83,4.14-3.61,5.54-4.96,1.93.81,5.22,3.85,6.46,5.55Z"/>
          <path class="cls-7" d="m170.41,162.12c-1.74-.93-2.46,5.47-6.51,1.95-.06-.56-4.17-5.58,1.06-7.49,3.18-.1,4.08,1.97,5.01-1.46.48,2.32.7,4.65.45,7Z"/>
          <path class="cls-22" d="m170.41,162.12c-.44,4.12-2.42,7.81-5.08,10.96-2.22-2.13-1.15-6.42-1.43-9.01,4.05,3.52,4.77-2.88,6.51-1.95Z"/>
          <path class="cls-28" d="m151.03,147.98c2.52-.15,3.18.65,1.48,2.51-7.82-1.98-13.42,14.53-1.1,12.49-1.83,1.47-3.82,3.21-6.52,2.45-3.23-.91-4.22-10.44,1.87-15.48,2.08-1.73,4.06-1.85,4.26-1.97Z"/>
          <path class="cls-29" d="m152.51,150.49c2.85.72,5.12,7.52-1.1,12.49-12.32,2.04-6.72-14.47,1.1-12.49Z"/>
        </g>
      </g>
    </g>
  </g>
</svg>